PathFileType	4	(X/Y/Z)	12_1_53_p1_0-303_filt_butterworth.trc
DataRate	CameraRate	NumFrames	NumMarkers	Units	OrigDataRate	OrigDataStartFrame	OrigNumFrames
55.0	55.0	5	27	m	55.0	189	303
Frame#	Time	RHip			RKnee			RAnkle			RBigToe			RSmallToe			RHeel			LHip			LKnee			LAnkle			LBigToe			LSmallToe			LHeel			Neck			Head			Nose			RShoulder			RElbow			RWrist			RThumb			RIndex			RPinky			LShoulder			LElbow			LWrist			LThumb			LIndex			LPinky			
		X1	Y1	Z1	X2	Y2	Z2	X3	Y3	Z3	X4	Y4	Z4	X5	Y5	Z5	X6	Y6	Z6	X7	Y7	Z7	X8	Y8	Z8	X9	Y9	Z9	X10	Y10	Z10	X11	Y11	Z11	X12	Y12	Z12	X13	Y13	Z13	X14	Y14	Z14	X15	Y15	Z15	X16	Y16	Z16	X17	Y17	Z17	X18	Y18	Z18	X19	Y19	Z19	X20	Y20	Z20	X21	Y21	Z21	X22	Y22	Z22	X23	Y23	Z23	X24	Y24	Z24	X25	Y25	Z25	X26	Y26	Z26	X27	Y27	Z27	
189	3.4363636363636365	0.4738707647901599	0.47093216339580807	1.0305789842276312	0.496944030476903	0.5235902817207841	1.4970974075651424	0.5150603391775983	0.5854299536131131	1.9317112791754005	0.47406646125913937	0.37834995944358946	1.9276938508211172	0.5293384211856598	0.4144455775846552	1.9224809436367192	0.4855312018080694	0.6491216015005046	2.015741600084721	0.2568934274686414	0.45814881169466926	1.0535154342038093	0.2815184881767492	0.5452536896662996	1.535447969927621	0.33224550361253435	0.6018514620824068	1.9594356496846317	0.33998470610725284	0.3860284693750104	1.9496493845570944	0.2721928918323452	0.433331136359919	1.9484361750867472	0.35009238050596236	0.6329154534087775	2.0008673700241877	0.28971381784421524	0.5660769482151666	0.40920513228350686	0.2550203881422728	0.5091566808767265	0.16613357512237242	0.27623731983711736	0.4333049713001758	0.2935189541835574	0.45610043419500323	0.6045688379804992	0.46298365618499837	0.6997250531979359	0.6311683576531547	0.4284849024268801	0.7356626244976843	0.40998844802406065	0.27840448977429705	0.6684703552332139	0.2779117339810588	0.22862566486925093	0.6841631335797781	0.2749450429131629	0.22254711119491294	0.7343242556176351	0.27558347180848763	0.23468186272729188	0.13155627150308022	0.5279624539770891	0.5043857657676811	0.020278451466218064	0.3795313323341568	0.7055764380072153	-0.0288541034280001	0.18401602192105787	0.5499809637128789	-0.0479901899861948	0.1403439287197529	0.44481725125493876	-0.07357804590238338	0.07909729085344919	0.44681693847722515	-0.09047979367217146	0.05216655082106155	0.5054902003776547
190	3.4545454545454546	0.47351210444177233	0.47084006467630696	1.030557903925954	0.4969718293141664	0.5234114252222232	1.4977904736974714	0.5149758879753104	0.5852822851022972	1.931342691421686	0.4741811788801521	0.3782841600391555	1.9261037346949337	0.5292956720247214	0.4143978138082276	1.9224361655893099	0.4858098043200203	0.6495914660906272	2.0152134342187846	0.2560235437798231	0.4554466458282088	1.0524830571872872	0.279857892172912	0.5400345155229928	1.531367227684081	0.332224861053317	0.6018679852301985	1.9593771244962377	0.33809440751701586	0.3860342750952557	1.948509555942842	0.2720874860803543	0.43353264666641794	1.9485794381335015	0.3500551606162647	0.6328813862049074	2.0007779710439006	0.292034266244216	0.5655821021633036	0.4082100867263808	0.25858220707970514	0.5102158889962827	0.16572555891071625	0.27795300377751314	0.4291710299113842	0.2940518711569735	0.4566210842628199	0.60561641961336	0.4639632903028366	0.701607068856474	0.630371986701467	0.42982997970392933	0.744193922690982	0.41667924074489426	0.27716775662859344	0.6854803074180023	0.28063725208634854	0.22536299177890487	0.6988127776952247	0.27452254641234586	0.2194925510052082	0.7502076533637941	0.29351877145991606	0.2325826339031259	0.13319955652612187	0.525892137290944	0.5016857801535555	0.02454716272810897	0.36381756222765704	0.6957317586546014	-0.015330202152112275	0.1824052964789763	0.5340630471268533	-0.036927624015271936	0.1382312501386423	0.43005197013475904	-0.054829257983349776	0.07796048245515713	0.42926196083582974	-0.07728880900107034	0.034888604066097895	0.4839987483487161
191	3.4727272727272727	0.47227499174470206	0.4705665058812503	1.0304989736587884	0.4966598254244796	0.5247725835205657	1.499993555416592	0.5148561073969542	0.5851780816331567	1.9307428324705982	0.4742285307537139	0.37826945847954146	1.9256248917694823	0.5292918292858693	0.4143664395340856	1.9224333115429453	0.486854892977231	0.6507305148929696	2.01431897440359	0.25555070965055	0.4547154983975007	1.050806017882748	0.27865369946826485	0.5361471258281156	1.5284019361538652	0.3322102148123034	0.6019037211831901	1.9593395009012855	0.336792200780713	0.386015106950368	1.9480312519393308	0.27193023414301504	0.43383882305778665	1.9487543922950372	0.3499685045348538	0.6329136277270713	2.000654113688865	0.2949616205783901	0.566781209201937	0.4077440066412313	0.26301234998102707	0.5157966527668266	0.16523430474850434	0.2798575774427887	0.4240480656265191	0.2941002931327396	0.4566213073712039	0.6053786765459808	0.46403383740306026	0.7033907137266827	0.6294460566559988	0.43079014834824675	0.7525303872242072	0.4235293835176789	0.27622635349379443	0.6990957509711625	0.28008450902250687	0.22226137691160047	0.710600643126582	0.274647182483567	0.21690578255702098	0.7646953531862254	0.30912756051894863	0.2310216804913774	0.1336427257854631	0.523096409190756	0.4994558922702674	0.02942762535028035	0.34785863592319916	0.6848488780418879	0.00045792449526891633	0.1745190361192997	0.5160134158824198	-0.01987415571618835	0.1320996879107451	0.41554996785002113	-0.03757560626882746	0.07548075606139246	0.4114879160835946	-0.06049688298529385	0.01798446279236575	0.4635691257629859
192	3.4909090909090907	0.47026304425496535	0.47003777170930117	1.0301127949102138	0.4957434234280137	0.5288079617775046	1.503051185889814	0.5148451829609231	0.5854764963302097	1.9305342255645102	0.47422316606574444	0.3782808294219985	1.9257243093561245	0.5293104408831065	0.41435254160776847	1.922464225017761	0.48848938593556596	0.6523783237205409	2.0138312334394883	0.2552835291910592	0.4551440478675914	1.0488744641831025	0.2782633610313864	0.5347718590915405	1.5274012595481374	0.3322170279655685	0.6019678906178274	1.9593471262040372	0.3363962111638844	0.3859257799832928	1.9479657125330156	0.27184935362748813	0.43387399871871724	1.9487957995440661	0.34989253250050434	0.6329496629111735	2.000572792477398	0.2981000161786301	0.5681777952701212	0.4070301998736336	0.26847490635105004	0.5256865286847003	0.16470731460269755	0.28295929840586065	0.41828108150028986	0.2930447158178455	0.45660220427222176	0.6049136461188978	0.46387639104874145	0.7058591774566425	0.6263350736578074	0.43141330912964276	0.76301936714959	0.43608626443927834	0.2758658930906301	0.7086311860490385	0.2832927641953485	0.22001883487139837	0.7230998801515112	0.28135997061066187	0.21507986028228107	0.7755185539259948	0.3182343196201919	0.22955500319537012	0.13355828313665669	0.5195501596735161	0.49724555763715494	0.032555690529803435	0.33565825599765053	0.6733532037726654	0.01511826491618962	0.16219816583006236	0.4960986887115525	-0.0007870152058443453	0.1244960137419886	0.40093807810046894	-0.023660594154427617	0.0720332936610315	0.3942746754527971	-0.04216344894756193	0.00403439577006391	0.4447712595973937
193	3.5090909090909093	0.4681225312633876	0.46929006076159024	1.0291842618845883	0.49448960191816815	0.5343346384824023	1.505311530185343	0.5150011411538241	0.5863644927632703	1.9310087672370566	0.47419189539921514	0.37828203743577393	1.9258754338410353	0.5293236766576275	0.41432171825635894	1.9224857175311123	0.490054338974103	0.6539514892148551	2.014869835543794	0.2551274607387415	0.45569224757105087	1.0475895238620492	0.2783237327881504	0.5348669067665681	1.5275232166313206	0.3322458234815898	0.6020607623785484	1.9594233759554975	0.33646452341174876	0.3857967729401296	1.9479661049992123	0.27184001426046844	0.43377451304686576	1.9487750921543676	0.34985769233191955	0.632906776081846	2.0005487357989518	0.30068218254305645	0.5690654584048569	0.4056570598427539	0.27400643973664984	0.5355968555490124	0.164178448395197	0.28743058538657024	0.41369835450992865	0.2911669259782242	0.4566081912615406	0.6043401728470614	0.4638151753659339	0.709783671422722	0.6202291753003423	0.43198432294616895	0.7760164498956366	0.4529334702853789	0.27629258225934994	0.7162263799692887	0.294408699659777	0.2190282601462728	0.7381648195216303	0.29500630270924255	0.21391496122018605	0.7847231023293979	0.3261747746623447	0.2277215343302123	0.13427046532799444	0.516795700664042	0.4945313148616402	0.032640388328304196	0.32668665177074	0.6613487552387995	0.025472724094542862	0.15268362351131123	0.4771611621792466	0.01597825435776401	0.12107649966994379	0.387268077374037	-0.010362025814191416	0.06816007945027511	0.3790417442816402	-0.025227560692327823	-0.004861634944269096	0.42750479831364807
